{
  "asset": {
    "generator": "FBX2glTF",
    "version": "2.0"
  },
  "scene": 0,
  "extensionsUsed": ["KHR_materials_unlit"],
  "buffers": [
    {
      "uri": "FloorNav_mesh_data.bin",
      "byteLength": 1432
    }
  ],
  "bufferViews": [
    {
      "buffer": 0,
      "byteLength": 216,
      "byteOffset": 0,
      "target": 34963
    },
    {
      "buffer": 0,
      "byteLength": 456,
      "byteOffset": 216,
      "target": 34962
    },
    {
      "buffer": 0,
      "byteLength": 456,
      "byteOffset": 672,
      "target": 34962
    },
    {
      "buffer": 0,
      "byteLength": 304,
      "byteOffset": 1128,
      "target": 34962
    }
  ],
  "scenes": [
    {
      "name": "Root Scene",
      "nodes": [0]
    }
  ],
  "accessors": [
    {
      "componentType": 5123,
      "type": "SCALAR",
      "count": 108,
      "bufferView": 0,
      "byteOffset": 0
    },
    {
      "componentType": 5126,
      "type": "VEC3",
      "count": 38,
      "bufferView": 1,
      "byteOffset": 0,
      "min": [-699.999877929688, -0.0000268220901489258, -1600],
      "max": [699.999877929688, 0.0000417232513427734, 625]
    },
    {
      "componentType": 5126,
      "type": "VEC3",
      "count": 38,
      "bufferView": 2,
      "byteOffset": 0
    },
    {
      "componentType": 5126,
      "type": "VEC2",
      "count": 38,
      "bufferView": 3,
      "byteOffset": 0
    }
  ],
  "samplers": [{}],
  "materials": [
    {
      "name": "PostBake_CombinedMaps",
      "alphaMode": "OPAQUE",
      "emissiveFactor": [1, 1, 1],
      "pbrMetallicRoughness": {
        "baseColorFactor": [0, 0, 0, 1],
        "metallicFactor": 0,
        "roughnessFactor": 0
      },
      "extensions": {
        "KHR_materials_unlit": {}
      }
    }
  ],
  "meshes": [
    {
      "name": "FloorNav_mesh",
      "primitives": [
        {
          "material": 0,
          "mode": 4,
          "attributes": {
            "NORMAL": 2,
            "POSITION": 1,
            "TEXCOORD_0": 3
          },
          "indices": 0
        }
      ]
    }
  ],
  "nodes": [
    {
      "name": "RootNode",
      "translation": [0, 0, 0],
      "rotation": [0, 0, 0, 1],
      "scale": [1, 1, 1],
      "children": [1]
    },
    {
      "name": "FloorNav_mesh",
      "translation": [0, 0, 0],
      "rotation": [0, 0, 0, 1],
      "scale": [0.00999999977648258, 0.00999999977648258, 0.00999999977648258],
      "mesh": 0
    }
  ]
}
