{
  "asset": {
    "generator": "FBX2glTF",
    "version": "2.0"
  },
  "scene": 0,
  "extensionsUsed": ["KHR_materials_unlit"],
  "buffers": [
    {
      "uri": "MeetingSpace1_mesh_data.bin",
      "byteLength": 55060
    }
  ],
  "bufferViews": [
    {
      "buffer": 0,
      "byteLength": 7764,
      "byteOffset": 0,
      "target": 34963
    },
    {
      "buffer": 0,
      "byteLength": 17736,
      "byteOffset": 7764,
      "target": 34962
    },
    {
      "buffer": 0,
      "byteLength": 17736,
      "byteOffset": 25500,
      "target": 34962
    },
    {
      "buffer": 0,
      "byteLength": 11824,
      "byteOffset": 43236,
      "target": 34962
    }
  ],
  "scenes": [
    {
      "name": "Root Scene",
      "nodes": [0]
    }
  ],
  "accessors": [
    {
      "componentType": 5123,
      "type": "SCALAR",
      "count": 3882,
      "bufferView": 0,
      "byteOffset": 0
    },
    {
      "componentType": 5126,
      "type": "VEC3",
      "count": 1478,
      "bufferView": 1,
      "byteOffset": 0,
      "min": [-1050, -37.499927520752, -1650],
      "max": [1050, 900, 975]
    },
    {
      "componentType": 5126,
      "type": "VEC3",
      "count": 1478,
      "bufferView": 2,
      "byteOffset": 0
    },
    {
      "componentType": 5126,
      "type": "VEC2",
      "count": 1478,
      "bufferView": 3,
      "byteOffset": 0
    }
  ],
  "images": [
    {
      "name": "MeetingSpace1_mesh.fbm/MainMaps_RTT.jpg",
      "uri": "MeetingSpace1_mesh_img0.jpg"
    }
  ],
  "samplers": [{}],
  "textures": [
    {
      "name": "file8",
      "sampler": 0,
      "source": 0
    }
  ],
  "materials": [
    {
      "name": "PostBake_MainMapsRTT",
      "alphaMode": "OPAQUE",
      "emissiveFactor": [0, 0, 0],
      "pbrMetallicRoughness": {
        "baseColorTexture": {
          "index": 0,
          "texCoord": 0
        },
        "baseColorFactor": [1, 1, 1, 1],
        "metallicFactor": 0,
        "roughnessFactor": 1
      },
      "extensions": {
        "KHR_materials_unlit": {}
      }
    }
  ],
  "meshes": [
    {
      "name": "MeetingSpace1_mesh",
      "primitives": [
        {
          "material": 0,
          "mode": 4,
          "attributes": {
            "NORMAL": 2,
            "POSITION": 1,
            "TEXCOORD_0": 3
          },
          "indices": 0
        }
      ]
    }
  ],
  "nodes": [
    {
      "name": "RootNode",
      "children": [1, 2, 3]
    },
    {
      "name": "MeetingSpace1_mesh",
      "scale": [0.00999999977648258, 0.00999999977648258, 0.00999999977648258],
      "mesh": 0
    },
    {
      "name": "Skybox_node",
      "scale": [8000, 8000, 8000]
    },
    {
      "name": "Water",
      "translation": [0, -88.5811309814453, -336.0791015625]
    }
  ]
}
