{
  "asset": {
    "generator": "FBX2glTF",
    "version": "2.0"
  },
  "scene": 0,
  "extensionsUsed": [
    "KHR_materials_unlit"
  ],
  "buffers": [
    {
      "uri": "OutdoorFacade_mesh_data.bin",
      "byteLength": 220224
    }
  ],
  "bufferViews": [
    {
      "buffer": 0,
      "byteLength": 23616,
      "byteOffset": 0,
      "target": 34963
    },
    {
      "buffer": 0,
      "byteLength": 73728,
      "byteOffset": 23616,
      "target": 34962
    },
    {
      "buffer": 0,
      "byteLength": 73728,
      "byteOffset": 97344,
      "target": 34962
    },
    {
      "buffer": 0,
      "byteLength": 49152,
      "byteOffset": 171072,
      "target": 34962
    }
  ],
  "scenes": [
    {
      "name": "Root Scene",
      "nodes": [
        0
      ]
    }
  ],
  "accessors": [
    {
      "componentType": 5123,
      "type": "SCALAR",
      "count": 11808,
      "bufferView": 0,
      "byteOffset": 0
    },
    {
      "componentType": 5126,
      "type": "VEC3",
      "count": 6144,
      "bufferView": 1,
      "byteOffset": 0,
      "min": [
        -4900.15185546875,
        -1837.5,
        -2832.21557617188
      ],
      "max": [
        4892.6982421875,
        2700,
        811.489440917969
      ]
    },
    {
      "componentType": 5126,
      "type": "VEC3",
      "count": 6144,
      "bufferView": 2,
      "byteOffset": 0
    },
    {
      "componentType": 5126,
      "type": "VEC2",
      "count": 6144,
      "bufferView": 3,
      "byteOffset": 0
    }
  ],
  "images": [
    {
      "name": "OutdoorFacade_mesh.fbm/MainMaps_RTT.jpg",
      "uri": "OutdoorFacade_mesh_img0.jpg"
    }
  ],
  "samplers": [
    {}
  ],
  "textures": [
    {
      "name": "file8",
      "sampler": 0,
      "source": 0
    }
  ],
  "materials": [
    {
      "name": "PostBake_MainMapsRTT",
      "alphaMode": "OPAQUE",
      "emissiveFactor": [
        0,
        0,
        0
      ],
      "pbrMetallicRoughness": {
        "baseColorTexture": {
          "index": 0,
          "texCoord": 0
        },
        "baseColorFactor": [
          1,
          1,
          1,
          1
        ],
        "metallicFactor": 0,
        "roughnessFactor": 1
      },
      "extensions": {
        "KHR_materials_unlit": {}
      }
    }
  ],
  "meshes": [
    {
      "name": "OutdoorFacade_mesh",
      "primitives": [
        {
          "material": 0,
          "mode": 4,
          "attributes": {
            "NORMAL": 2,
            "POSITION": 1,
            "TEXCOORD_0": 3
          },
          "indices": 0
        }
      ]
    }
  ],
  "nodes": [
    {
      "name": "RootNode",
      "translation": [
        0,
        0,
        0
      ],
      "rotation": [
        0,
        0,
        0,
        1
      ],
      "scale": [
        1,
        1,
        1
      ],
      "children": [
        1
      ]
    },
    {
      "name": "OutdoorFacade_mesh",
      "translation": [
        0,
        0,
        0
      ],
      "rotation": [
        0,
        0,
        0,
        1
      ],
      "scale": [
        0.00999999977648258,
        0.00999999977648258,
        0.00999999977648258
      ],
      "mesh": 0
    }
  ]
}