{
    "asset": {
        "generator": "Maya2glTF V0.9.7-BETA 66f7270",
        "version": "2.0"
    },
    "scenes": [
        {
            "nodes": [
                0
            ]
        }
    ],
    "scene": 0,
    "nodes": [
        {
            "children": [
                1
            ],
            "name": "WallRoof8x1_5R"
        },
        {
            "mesh": 0,
            "name": "WallRoof8x1_5RShape"
        }
    ],
    "meshes": [
        {
            "primitives": [
                {
                    "attributes": {
                        "NORMAL": 1,
                        "POSITION": 2,
                        "TANGENT": 3,
                        "TEXCOORD_0": 4
                    },
                    "indices": 0,
                    "mode": 4,
                    "material": 0
                }
            ],
            "name": "WallRoof8x1_5RShape"
        }
    ],
    "accessors": [
        {
            "bufferView": 0,
            "byteOffset": 0,
            "componentType": 5123,
            "count": 9,
            "max": [
                4
            ],
            "min": [
                0
            ],
            "type": "SCALAR"
        },
        {
            "bufferView": 1,
            "byteOffset": 0,
            "componentType": 5126,
            "count": 5,
            "max": [
                0.0,
                0.0,
                1.0
            ],
            "min": [
                -7.731119922027575e-8,
                0.0,
                1.0
            ],
            "type": "VEC3"
        },
        {
            "bufferView": 1,
            "byteOffset": 60,
            "componentType": 5126,
            "count": 5,
            "max": [
                800.0,
                137.5,
                12.499954223632813
            ],
            "min": [
                0.0,
                -12.5,
                12.499923706054688
            ],
            "type": "VEC3"
        },
        {
            "bufferView": 2,
            "byteOffset": 0,
            "componentType": 5126,
            "count": 5,
            "max": [
                1.0,
                0.0,
                7.731119922027575e-8,
                1.0
            ],
            "min": [
                1.0,
                -7.947289049070606e-8,
                0.0,
                1.0
            ],
            "type": "VEC4"
        },
        {
            "bufferView": 3,
            "byteOffset": 0,
            "componentType": 5126,
            "count": 5,
            "max": [
                0.7524773478507996,
                0.5765244960784912
            ],
            "min": [
                0.002477342262864113,
                0.435899555683136
            ],
            "type": "VEC2"
        }
    ],
    "materials": [
        {
            "pbrMetallicRoughness": {
                "baseColorFactor": [
                    1.0,
                    1.0,
                    1.0,
                    1.0
                ],
                "baseColorTexture": {
                    "index": 0
                },
                "metallicFactor": 1.0,
                "roughnessFactor": 1.0,
                "metallicRoughnessTexture": {
                    "index": 1
                }
            },
            "emissiveFactor": [
                1.0,
                1.0,
                1.0
            ],
            "emissiveTexture": {
                "index": 4
            },
            "normalTexture": {
                "index": 2
            },
            "occlusionTexture": {
                "index": 3
            }
        }
    ],
    "textures": [
        {
            "sampler": 0,
            "source": 0
        },
        {
            "sampler": 0,
            "source": 1
        },
        {
            "sampler": 0,
            "source": 2
        },
        {
            "sampler": 0,
            "source": 3
        },
        {
            "sampler": 0,
            "source": 4
        }
    ],
    "images": [
        {
            "uri": "ArchMods_Roughness.jpg"
        },
        {
            "uri": "ArchMods_Roughness-ArchMods_Metallic.jpg"
        },
        {
            "uri": "ArchMods_Normal.png"
        },
        {
            "uri": "ArchMods_Ambient_Occlusion.jpg"
        },
        {
            "uri": "ArchModuleTex_Emission.png"
        }
    ],
    "samplers": [
        {
            "magFilter": 9729,
            "minFilter": 9987,
            "wrapS": 10497,
            "wrapT": 10497
        }
    ],
    "bufferViews": [
        {
            "buffer": 0,
            "byteOffset": 240,
            "byteLength": 18,
            "target": 34963
        },
        {
            "buffer": 0,
            "byteOffset": 80,
            "byteLength": 120,
            "byteStride": 12,
            "target": 34962
        },
        {
            "buffer": 0,
            "byteOffset": 0,
            "byteLength": 80,
            "byteStride": 16,
            "target": 34962
        },
        {
            "buffer": 0,
            "byteOffset": 200,
            "byteLength": 40,
            "byteStride": 8,
            "target": 34962
        }
    ],
    "buffers": [
        {
            "byteLength": 258,
            "uri": "WallRoof8x1_5R0.bin"
        }
    ]
}
