{
    "asset": {
        "generator": "Maya2glTF V0.9.7-BETA ab18f62",
        "version": "2.0"
    },
    "scenes": [
        {
            "nodes": [
                0
            ]
        }
    ],
    "scene": 0,
    "nodes": [
        {
            "children": [
                1
            ],
            "name": "MugMesh"
        },
        {
            "mesh": 0,
            "name": "MugMeshShape"
        }
    ],
    "meshes": [
        {
            "primitives": [
                {
                    "attributes": {
                        "NORMAL": 1,
                        "POSITION": 2,
                        "TANGENT": 3,
                        "TEXCOORD_0": 4
                    },
                    "indices": 0,
                    "mode": 4,
                    "material": 0
                }
            ],
            "name": "MugMeshShape"
        }
    ],
    "accessors": [
        {
            "bufferView": 0,
            "byteOffset": 0,
            "componentType": 5123,
            "count": 1374,
            "max": [
                448
            ],
            "min": [
                0
            ],
            "type": "SCALAR"
        },
        {
            "bufferView": 1,
            "byteOffset": 0,
            "componentType": 5126,
            "count": 449,
            "max": [
                0.9899452328681946,
                1.0,
                1.0
            ],
            "min": [
                -0.9899452328681946,
                -1.0,
                -0.999998927116394
            ],
            "type": "VEC3"
        },
        {
            "bufferView": 1,
            "byteOffset": 5388,
            "componentType": 5126,
            "count": 449,
            "max": [
                5.846671581268311,
                12.566182136535645,
                11.101995468139649
            ],
            "min": [
                -5.846671581268311,
                0.0,
                -5.846671581268311
            ],
            "type": "VEC3"
        },
        {
            "bufferView": 2,
            "byteOffset": 0,
            "componentType": 5126,
            "count": 449,
            "max": [
                0.9999974370002748,
                0.9999450445175172,
                0.9989992380142212,
                1.0
            ],
            "min": [
                -0.9913846254348756,
                -0.999998927116394,
                -0.9956412315368652,
                -1.0
            ],
            "type": "VEC4"
        },
        {
            "bufferView": 3,
            "byteOffset": 0,
            "componentType": 5126,
            "count": 449,
            "max": [
                0.9926907420158386,
                0.9911676645278932
            ],
            "min": [
                0.00543073657900095,
                0.00624924898147583
            ],
            "type": "VEC2"
        }
    ],
    "materials": [
        {
            "pbrMetallicRoughness": {
                "baseColorFactor": [
                    1.0,
                    1.0,
                    1.0,
                    1.0
                ],
                "baseColorTexture": {
                    "index": 0
                },
                "metallicFactor": 0.0,
                "roughnessFactor": 0.5,
                "metallicRoughnessTexture": {
                    "index": 1
                }
            },
            "emissiveFactor": [
                0.0,
                0.0,
                0.0
            ],
            "occlusionTexture": {
                "index": 2
            }
        }
    ],
    "textures": [
        {
            "sampler": 0,
            "source": 0
        },
        {
            "sampler": 0,
            "source": 1
        },
        {
            "sampler": 0,
            "source": 2
        }
    ],
    "images": [
        {
            "uri": "MugMat_BaseColor.jpg"
        },
        {
            "uri": "MugMat_Roughness.jpg"
        },
        {
            "uri": "MugMat_AmbientOcclusion.jpg"
        }
    ],
    "samplers": [
        {
            "magFilter": 9729,
            "minFilter": 9987,
            "wrapS": 10497,
            "wrapT": 10497
        }
    ],
    "bufferViews": [
        {
            "buffer": 0,
            "byteOffset": 21552,
            "byteLength": 2748,
            "target": 34963
        },
        {
            "buffer": 0,
            "byteOffset": 7184,
            "byteLength": 10776,
            "byteStride": 12,
            "target": 34962
        },
        {
            "buffer": 0,
            "byteOffset": 0,
            "byteLength": 7184,
            "byteStride": 16,
            "target": 34962
        },
        {
            "buffer": 0,
            "byteOffset": 17960,
            "byteLength": 3592,
            "byteStride": 8,
            "target": 34962
        }
    ],
    "buffers": [
        {
            "byteLength": 24300,
            "uri": "MugTest0.bin"
        }
    ]
}
